<svg width="178" height="57" viewBox="0 0 178 57" fill="none" xmlns="http://www.w3.org/2000/svg">
<path d="M23.71 41.11C23.71 41.93 23.73 42.58 23.77 43.06C23.83 43.52 23.94 43.88 24.1 44.14C24.28 44.38 24.54 44.54 24.88 44.62C25.24 44.7 25.72 44.76 26.32 44.8V46H16.87V44.8C17.45 44.76 17.91 44.7 18.25 44.62C18.61 44.54 18.88 44.38 19.06 44.14C19.26 43.9 19.39 43.56 19.45 43.12C19.51 42.68 19.54 42.08 19.54 41.32V37.57C19.54 36.39 19.52 35.44 19.48 34.72C19.44 33.98 19.39 33.48 19.33 33.22C19.27 32.96 19.19 32.75 19.09 32.59C18.99 32.41 18.84 32.28 18.64 32.2C18.44 32.1 18.19 32.04 17.89 32.02C17.59 31.98 17.21 31.96 16.75 31.96V30.94L22.54 29.8L22.93 32.44H23.05C23.71 31.6 24.49 30.95 25.39 30.49C26.29 30.03 27.28 29.8 28.36 29.8C29.64 29.8 30.67 29.98 31.45 30.34C32.25 30.68 32.96 31.26 33.58 32.08C33.92 32.54 34.22 33.14 34.48 33.88C34.74 34.6 34.87 35.6 34.87 36.88V41.11C34.87 41.93 34.89 42.58 34.93 43.06C34.99 43.52 35.1 43.88 35.26 44.14C35.44 44.38 35.7 44.54 36.04 44.62C36.38 44.7 36.84 44.76 37.42 44.8V46H28.03V44.8C28.63 44.78 29.1 44.73 29.44 44.65C29.8 44.55 30.07 44.38 30.25 44.14C30.43 43.9 30.55 43.56 30.61 43.12C30.67 42.66 30.7 42.06 30.7 41.32V37.24C30.7 36.22 30.64 35.36 30.52 34.66C30.4 33.96 30.2 33.4 29.92 32.98C29.66 32.54 29.31 32.23 28.87 32.05C28.43 31.85 27.88 31.75 27.22 31.75C26.58 31.75 26.03 31.93 25.57 32.29C25.11 32.65 24.71 33.15 24.37 33.79C24.19 34.15 24.03 34.62 23.89 35.2C23.77 35.76 23.71 36.35 23.71 36.97V41.11ZM51.7469 35.02C51.7469 34.22 51.7269 33.59 51.6869 33.13C51.6469 32.65 51.5369 32.29 51.3569 32.05C51.1769 31.79 50.9069 31.62 50.5469 31.54C50.2069 31.44 49.7369 31.36 49.1369 31.3V30.1H55.9169V39.19C55.9169 40.41 55.9269 41.37 55.9469 42.07C55.9869 42.75 56.0469 43.26 56.1269 43.6C56.1869 43.86 56.2569 44.07 56.3369 44.23C56.4169 44.37 56.5469 44.49 56.7269 44.59C56.9069 44.67 57.1469 44.73 57.4469 44.77C57.7669 44.79 58.1769 44.8 58.6769 44.8V45.97L52.7069 46.33L52.3769 43.66H52.2569C51.7369 44.5 51.0069 45.15 50.0669 45.61C49.1269 46.07 48.0769 46.3 46.9169 46.3C44.7769 46.3 43.1469 45.54 42.0269 44.02C41.1669 42.86 40.7369 41.21 40.7369 39.07V35.02C40.7369 34.2 40.7169 33.56 40.6769 33.1C40.6369 32.62 40.5269 32.26 40.3469 32.02C40.1869 31.78 39.9369 31.62 39.5969 31.54C39.2569 31.44 38.7869 31.36 38.1869 31.3V30.1H44.9069V38.59C44.9069 40.61 45.1569 42.08 45.6569 43C46.1569 43.9 46.9569 44.35 48.0569 44.35C49.2369 44.35 50.1469 43.81 50.7869 42.73C51.4269 41.69 51.7469 40.16 51.7469 38.14V35.02ZM66.7764 41.08C66.7764 41.88 66.8064 42.52 66.8664 43C66.9264 43.48 67.0464 43.85 67.2264 44.11C67.4064 44.37 67.6664 44.55 68.0064 44.65C68.3464 44.73 68.8064 44.78 69.3864 44.8V46H59.9364V44.8C60.4964 44.78 60.9464 44.72 61.2864 44.62C61.6464 44.5 61.9164 44.32 62.0964 44.08C62.2964 43.82 62.4264 43.47 62.4864 43.03C62.5664 42.57 62.6064 41.99 62.6064 41.29V37.6C62.6064 36.44 62.5864 35.49 62.5464 34.75C62.5064 33.99 62.4564 33.47 62.3964 33.19C62.2964 32.69 62.0664 32.36 61.7064 32.2C61.3664 32.04 60.7364 31.96 59.8164 31.96V30.94L66.7764 29.8V41.08ZM62.3664 23.44C62.3664 22.78 62.5864 22.23 63.0264 21.79C63.4864 21.33 64.0364 21.1 64.6764 21.1C65.3364 21.1 65.8864 21.33 66.3264 21.79C66.7864 22.23 67.0164 22.78 67.0164 23.44C67.0164 24.08 66.7864 24.63 66.3264 25.09C65.8864 25.53 65.3364 25.75 64.6764 25.75C64.0364 25.75 63.4864 25.53 63.0264 25.09C62.5864 24.63 62.3664 24.08 62.3664 23.44ZM80.6463 44.8C81.2863 44.8 81.7363 44.78 81.9963 44.74C82.2563 44.68 82.3863 44.57 82.3863 44.41C82.3863 44.29 82.2463 44 81.9663 43.54C81.7063 43.06 81.3663 42.51 80.9463 41.89L78.6663 38.47L77.1663 39.91V41.08C77.1663 41.86 77.1963 42.49 77.2563 42.97C77.3163 43.45 77.4163 43.83 77.5563 44.11C77.7163 44.37 77.9263 44.55 78.1863 44.65C78.4663 44.75 78.8163 44.8 79.2363 44.8V46H70.3863V44.8C70.9463 44.78 71.3963 44.72 71.7363 44.62C72.0763 44.52 72.3463 44.35 72.5463 44.11C72.7463 43.85 72.8763 43.5 72.9363 43.06C73.0163 42.6 73.0563 42.01 73.0563 41.29V28.57C73.0563 27.35 73.0363 26.39 72.9963 25.69C72.9563 24.99 72.8463 24.47 72.6663 24.13C72.5063 23.77 72.2463 23.55 71.8862 23.47C71.5463 23.39 71.0763 23.35 70.4763 23.35V22.24L77.1663 21.1V37.78L80.0463 35.05C81.0863 34.07 81.8263 33.34 82.2663 32.86C82.7063 32.36 82.9263 32 82.9263 31.78C82.9263 31.6 82.7363 31.48 82.3563 31.42C81.9963 31.34 81.3163 31.3 80.3163 31.3V30.1H88.5063V31.3C87.7463 31.3 87.0763 31.43 86.4963 31.69C85.9163 31.95 85.2863 32.4 84.6063 33.04L81.6963 35.77L86.8863 43.12C87.3463 43.76 87.7963 44.2 88.2363 44.44C88.6763 44.68 89.2563 44.8 89.9763 44.8V46H80.6463V44.8ZM97.5381 41.08C97.5381 41.88 97.5681 42.52 97.6281 43C97.6881 43.48 97.8081 43.85 97.9881 44.11C98.1681 44.37 98.4281 44.55 98.7681 44.65C99.1081 44.73 99.5681 44.78 100.148 44.8V46H90.6981V44.8C91.2581 44.78 91.7081 44.72 92.0481 44.62C92.4081 44.5 92.6781 44.32 92.8581 44.08C93.0581 43.82 93.1881 43.47 93.2481 43.03C93.3281 42.57 93.3681 41.99 93.3681 41.29V37.6C93.3681 36.44 93.3481 35.49 93.3081 34.75C93.2681 33.99 93.2181 33.47 93.1581 33.19C93.0581 32.69 92.8281 32.36 92.4681 32.2C92.1281 32.04 91.4981 31.96 90.5781 31.96V30.94L97.5381 29.8V41.08ZM93.1281 23.44C93.1281 22.78 93.3481 22.23 93.7881 21.79C94.2481 21.33 94.7981 21.1 95.4381 21.1C96.0981 21.1 96.6481 21.33 97.0881 21.79C97.5481 22.23 97.7781 22.78 97.7781 23.44C97.7781 24.08 97.5481 24.63 97.0881 25.09C96.6481 25.53 96.0981 25.75 95.4381 25.75C94.7981 25.75 94.2481 25.53 93.7881 25.09C93.3481 24.63 93.1281 24.08 93.1281 23.44ZM112.008 25.33H111.348C111.288 24.69 111.148 24.26 110.928 24.04C110.728 23.82 110.308 23.71 109.668 23.71C109.048 23.71 108.658 23.74 108.498 23.8C108.338 23.84 108.258 23.94 108.258 24.1V29.92C108.258 30.44 108.338 30.81 108.498 31.03C108.678 31.23 109.088 31.35 109.728 31.39V32.14H104.838V31.39C105.478 31.35 105.888 31.23 106.068 31.03C106.248 30.81 106.338 30.44 106.338 29.92V24.1C106.338 23.94 106.258 23.84 106.098 23.8C105.938 23.74 105.598 23.71 105.078 23.71C104.798 23.71 104.538 23.73 104.298 23.77C104.078 23.79 103.878 23.85 103.698 23.95C103.538 24.05 103.408 24.21 103.308 24.43C103.208 24.65 103.148 24.95 103.128 25.33H102.498V22.9H112.008V25.33ZM122.118 22.9H125.748V23.65C125.208 23.65 124.858 23.77 124.698 24.01C124.558 24.25 124.488 24.74 124.488 25.48V29.56C124.488 29.96 124.498 30.28 124.518 30.52C124.558 30.76 124.628 30.94 124.728 31.06C124.828 31.18 124.968 31.27 125.148 31.33C125.328 31.37 125.568 31.39 125.868 31.39V32.14H121.218V31.39C121.518 31.39 121.758 31.37 121.938 31.33C122.118 31.27 122.258 31.18 122.358 31.06C122.458 30.94 122.518 30.77 122.538 30.55C122.578 30.33 122.598 30.03 122.598 29.65V24.4H122.478L118.998 32.26H118.608L115.338 24.4H115.218V29.56C115.218 29.96 115.228 30.28 115.248 30.52C115.288 30.76 115.358 30.94 115.458 31.06C115.558 31.18 115.698 31.27 115.878 31.33C116.058 31.37 116.298 31.39 116.598 31.39V32.14H112.758V31.39C113.058 31.39 113.298 31.37 113.478 31.33C113.658 31.27 113.798 31.18 113.898 31.06C113.998 30.94 114.058 30.77 114.078 30.55C114.118 30.33 114.138 30.03 114.138 29.65V25.39C114.138 24.71 114.048 24.25 113.868 24.01C113.708 23.77 113.378 23.65 112.878 23.65V22.9H116.838L119.388 29.23L122.118 22.9Z" fill="white"/>
<rect width="58" height="57" fill="white"/>
<path d="M42.61 40.18L46.66 28.6C47.14 27.26 47.38 26.26 47.38 25.6C47.38 24.98 47.16 24.58 46.72 24.4C46.3 24.2 45.64 24.1 44.74 24.1V22.9H53.26V24.1C52.5 24.1 51.81 24.29 51.19 24.67C50.59 25.03 50.13 25.65 49.81 26.53L42.58 46.3H39.91L34.69 30.46L28.75 46.3H26.26L19.9 28.78C19.52 27.76 19.17 26.94 18.85 26.32C18.53 25.7 18.19 25.23 17.83 24.91C17.47 24.59 17.08 24.38 16.66 24.28C16.24 24.18 15.74 24.13 15.16 24.13V22.9H26.5V24.13C25.48 24.13 24.78 24.23 24.4 24.43C24.02 24.61 23.83 24.92 23.83 25.36C23.83 25.52 23.84 25.68 23.86 25.84C23.88 25.98 23.92 26.15 23.98 26.35C24.04 26.53 24.11 26.76 24.19 27.04C24.29 27.32 24.42 27.67 24.58 28.09L28.78 40.18L33.64 26.92C33.44 26.38 33.24 25.94 33.04 25.6C32.84 25.26 32.6 24.99 32.32 24.79C32.06 24.59 31.76 24.45 31.42 24.37C31.08 24.27 30.67 24.19 30.19 24.13V22.9H40.78V24.13C39.94 24.13 39.32 24.24 38.92 24.46C38.52 24.66 38.32 25.06 38.32 25.66C38.32 25.96 38.36 26.31 38.44 26.71C38.54 27.11 38.67 27.57 38.83 28.09L42.61 40.18Z" fill="#1C1C1C"/>
</svg>
