<svg width="148" height="61" viewBox="0 0 148 61" fill="none" xmlns="http://www.w3.org/2000/svg">
<path d="M69.71 42.08C69.71 42.88 69.74 43.52 69.8 44C69.86 44.48 69.98 44.85 70.16 45.11C70.34 45.37 70.6 45.55 70.94 45.65C71.28 45.73 71.74 45.78 72.32 45.8V47H62.87V45.8C63.43 45.78 63.88 45.72 64.22 45.62C64.58 45.5 64.85 45.32 65.03 45.08C65.23 44.82 65.36 44.47 65.42 44.03C65.5 43.57 65.54 42.99 65.54 42.29V38.6C65.54 37.44 65.52 36.49 65.48 35.75C65.44 34.99 65.39 34.47 65.33 34.19C65.23 33.69 65 33.36 64.64 33.2C64.3 33.04 63.67 32.96 62.75 32.96V31.94L69.71 30.8V42.08ZM65.3 24.44C65.3 23.78 65.52 23.23 65.96 22.79C66.42 22.33 66.97 22.1 67.61 22.1C68.27 22.1 68.82 22.33 69.26 22.79C69.72 23.23 69.95 23.78 69.95 24.44C69.95 25.08 69.72 25.63 69.26 26.09C68.82 26.53 68.27 26.75 67.61 26.75C66.97 26.75 66.42 26.53 65.96 26.09C65.52 25.63 65.3 25.08 65.3 24.44ZM83.5798 45.8C84.2198 45.8 84.6698 45.78 84.9298 45.74C85.1898 45.68 85.3198 45.57 85.3198 45.41C85.3198 45.29 85.1798 45 84.8998 44.54C84.6398 44.06 84.2998 43.51 83.8798 42.89L81.5998 39.47L80.0998 40.91V42.08C80.0998 42.86 80.1298 43.49 80.1898 43.97C80.2498 44.45 80.3498 44.83 80.4898 45.11C80.6498 45.37 80.8598 45.55 81.1198 45.65C81.3998 45.75 81.7498 45.8 82.1698 45.8V47H73.3198V45.8C73.8798 45.78 74.3298 45.72 74.6698 45.62C75.0098 45.52 75.2798 45.35 75.4798 45.11C75.6798 44.85 75.8098 44.5 75.8698 44.06C75.9498 43.6 75.9898 43.01 75.9898 42.29V29.57C75.9898 28.35 75.9698 27.39 75.9298 26.69C75.8898 25.99 75.7798 25.47 75.5998 25.13C75.4398 24.77 75.1798 24.55 74.8198 24.47C74.4798 24.39 74.0098 24.35 73.4098 24.35V23.24L80.0998 22.1V38.78L82.9798 36.05C84.0198 35.07 84.7598 34.34 85.1998 33.86C85.6398 33.36 85.8598 33 85.8598 32.78C85.8598 32.6 85.6698 32.48 85.2898 32.42C84.9298 32.34 84.2498 32.3 83.2498 32.3V31.1H91.4398V32.3C90.6798 32.3 90.0098 32.43 89.4298 32.69C88.8498 32.95 88.2198 33.4 87.5398 34.04L84.6298 36.77L89.8198 44.12C90.2798 44.76 90.7298 45.2 91.1698 45.44C91.6098 45.68 92.1898 45.8 92.9098 45.8V47H83.5798V45.8ZM100.472 42.08C100.472 42.88 100.502 43.52 100.562 44C100.622 44.48 100.742 44.85 100.922 45.11C101.102 45.37 101.362 45.55 101.702 45.65C102.042 45.73 102.502 45.78 103.082 45.8V47H93.6317V45.8C94.1917 45.78 94.6417 45.72 94.9817 45.62C95.3417 45.5 95.6117 45.32 95.7917 45.08C95.9917 44.82 96.1217 44.47 96.1817 44.03C96.2617 43.57 96.3017 42.99 96.3017 42.29V38.6C96.3017 37.44 96.2817 36.49 96.2417 35.75C96.2017 34.99 96.1517 34.47 96.0917 34.19C95.9917 33.69 95.7617 33.36 95.4017 33.2C95.0617 33.04 94.4317 32.96 93.5117 32.96V31.94L100.472 30.8V42.08ZM96.0617 24.44C96.0617 23.78 96.2817 23.23 96.7217 22.79C97.1817 22.33 97.7317 22.1 98.3717 22.1C99.0317 22.1 99.5817 22.33 100.022 22.79C100.482 23.23 100.712 23.78 100.712 24.44C100.712 25.08 100.482 25.63 100.022 26.09C99.5817 26.53 99.0317 26.75 98.3717 26.75C97.7317 26.75 97.1817 26.53 96.7217 26.09C96.2817 25.63 96.0617 25.08 96.0617 24.44ZM114.942 26.33H114.282C114.222 25.69 114.082 25.26 113.862 25.04C113.662 24.82 113.242 24.71 112.602 24.71C111.982 24.71 111.592 24.74 111.432 24.8C111.272 24.84 111.192 24.94 111.192 25.1V30.92C111.192 31.44 111.272 31.81 111.432 32.03C111.612 32.23 112.022 32.35 112.662 32.39V33.14H107.772V32.39C108.412 32.35 108.822 32.23 109.002 32.03C109.182 31.81 109.272 31.44 109.272 30.92V25.1C109.272 24.94 109.192 24.84 109.032 24.8C108.872 24.74 108.532 24.71 108.012 24.71C107.732 24.71 107.472 24.73 107.232 24.77C107.012 24.79 106.812 24.85 106.632 24.95C106.472 25.05 106.342 25.21 106.242 25.43C106.142 25.65 106.082 25.95 106.062 26.33H105.432V23.9H114.942V26.33ZM125.052 23.9H128.682V24.65C128.142 24.65 127.792 24.77 127.632 25.01C127.492 25.25 127.422 25.74 127.422 26.48V30.56C127.422 30.96 127.432 31.28 127.452 31.52C127.492 31.76 127.562 31.94 127.662 32.06C127.762 32.18 127.902 32.27 128.082 32.33C128.262 32.37 128.502 32.39 128.802 32.39V33.14H124.152V32.39C124.452 32.39 124.692 32.37 124.872 32.33C125.052 32.27 125.192 32.18 125.292 32.06C125.392 31.94 125.452 31.77 125.472 31.55C125.512 31.33 125.532 31.03 125.532 30.65V25.4H125.412L121.932 33.26H121.542L118.272 25.4H118.152V30.56C118.152 30.96 118.162 31.28 118.182 31.52C118.222 31.76 118.292 31.94 118.392 32.06C118.492 32.18 118.632 32.27 118.812 32.33C118.992 32.37 119.232 32.39 119.532 32.39V33.14H115.692V32.39C115.992 32.39 116.232 32.37 116.412 32.33C116.592 32.27 116.732 32.18 116.832 32.06C116.932 31.94 116.992 31.77 117.012 31.55C117.052 31.33 117.072 31.03 117.072 30.65V26.39C117.072 25.71 116.982 25.25 116.802 25.01C116.642 24.77 116.312 24.65 115.812 24.65V23.9H119.772L122.322 30.23L125.052 23.9Z" fill="white"/>
<rect width="61.6909" height="60.6273" fill="white"/>
<path d="M43.61 41.18L47.66 29.6C48.14 28.26 48.38 27.26 48.38 26.6C48.38 25.98 48.16 25.58 47.72 25.4C47.3 25.2 46.64 25.1 45.74 25.1V23.9H54.26V25.1C53.5 25.1 52.81 25.29 52.19 25.67C51.59 26.03 51.13 26.65 50.81 27.53L43.58 47.3H40.91L35.69 31.46L29.75 47.3H27.26L20.9 29.78C20.52 28.76 20.17 27.94 19.85 27.32C19.53 26.7 19.19 26.23 18.83 25.91C18.47 25.59 18.08 25.38 17.66 25.28C17.24 25.18 16.74 25.13 16.16 25.13V23.9H27.5V25.13C26.48 25.13 25.78 25.23 25.4 25.43C25.02 25.61 24.83 25.92 24.83 26.36C24.83 26.52 24.84 26.68 24.86 26.84C24.88 26.98 24.92 27.15 24.98 27.35C25.04 27.53 25.11 27.76 25.19 28.04C25.29 28.32 25.42 28.67 25.58 29.09L29.78 41.18L34.64 27.92C34.44 27.38 34.24 26.94 34.04 26.6C33.84 26.26 33.6 25.99 33.32 25.79C33.06 25.59 32.76 25.45 32.42 25.37C32.08 25.27 31.67 25.19 31.19 25.13V23.9H41.78V25.13C40.94 25.13 40.32 25.24 39.92 25.46C39.52 25.66 39.32 26.06 39.32 26.66C39.32 26.96 39.36 27.31 39.44 27.71C39.54 28.11 39.67 28.57 39.83 29.09L43.61 41.18Z" fill="black"/>
</svg>
