<svg width="220" height="57" viewBox="0 0 220 57" fill="none" xmlns="http://www.w3.org/2000/svg">
<path d="M65.71 41.08C65.71 41.88 65.74 42.52 65.8 43C65.86 43.48 65.98 43.85 66.16 44.11C66.34 44.37 66.6 44.55 66.94 44.65C67.28 44.73 67.74 44.78 68.32 44.8V46H58.87V44.8C59.43 44.78 59.88 44.72 60.22 44.62C60.58 44.5 60.85 44.32 61.03 44.08C61.23 43.82 61.36 43.47 61.42 43.03C61.5 42.57 61.54 41.99 61.54 41.29V37.6C61.54 36.44 61.52 35.49 61.48 34.75C61.44 33.99 61.39 33.47 61.33 33.19C61.23 32.69 61 32.36 60.64 32.2C60.3 32.04 59.67 31.96 58.75 31.96V30.94L65.71 29.8V41.08ZM61.3 23.44C61.3 22.78 61.52 22.23 61.96 21.79C62.42 21.33 62.97 21.1 63.61 21.1C64.27 21.1 64.82 21.33 65.26 21.79C65.72 22.23 65.95 22.78 65.95 23.44C65.95 24.08 65.72 24.63 65.26 25.09C64.82 25.53 64.27 25.75 63.61 25.75C62.97 25.75 62.42 25.53 61.96 25.09C61.52 24.63 61.3 24.08 61.3 23.44ZM79.5798 44.8C80.2198 44.8 80.6698 44.78 80.9298 44.74C81.1898 44.68 81.3198 44.57 81.3198 44.41C81.3198 44.29 81.1798 44 80.8998 43.54C80.6398 43.06 80.2998 42.51 79.8798 41.89L77.5998 38.47L76.0998 39.91V41.08C76.0998 41.86 76.1298 42.49 76.1898 42.97C76.2498 43.45 76.3498 43.83 76.4898 44.11C76.6498 44.37 76.8598 44.55 77.1198 44.65C77.3998 44.75 77.7498 44.8 78.1698 44.8V46H69.3198V44.8C69.8798 44.78 70.3298 44.72 70.6698 44.62C71.0098 44.52 71.2798 44.35 71.4798 44.11C71.6798 43.85 71.8098 43.5 71.8698 43.06C71.9498 42.6 71.9898 42.01 71.9898 41.29V28.57C71.9898 27.35 71.9698 26.39 71.9298 25.69C71.8898 24.99 71.7798 24.47 71.5998 24.13C71.4398 23.77 71.1798 23.55 70.8198 23.47C70.4798 23.39 70.0098 23.35 69.4098 23.35V22.24L76.0998 21.1V37.78L78.9798 35.05C80.0198 34.07 80.7598 33.34 81.1998 32.86C81.6398 32.36 81.8598 32 81.8598 31.78C81.8598 31.6 81.6698 31.48 81.2898 31.42C80.9298 31.34 80.2498 31.3 79.2498 31.3V30.1H87.4398V31.3C86.6798 31.3 86.0098 31.43 85.4298 31.69C84.8498 31.95 84.2198 32.4 83.5398 33.04L80.6298 35.77L85.8198 43.12C86.2798 43.76 86.7298 44.2 87.1698 44.44C87.6098 44.68 88.1898 44.8 88.9098 44.8V46H79.5798V44.8ZM96.4717 41.08C96.4717 41.88 96.5017 42.52 96.5617 43C96.6217 43.48 96.7417 43.85 96.9217 44.11C97.1017 44.37 97.3617 44.55 97.7017 44.65C98.0417 44.73 98.5017 44.78 99.0817 44.8V46H89.6317V44.8C90.1917 44.78 90.6417 44.72 90.9817 44.62C91.3417 44.5 91.6117 44.32 91.7917 44.08C91.9917 43.82 92.1217 43.47 92.1817 43.03C92.2617 42.57 92.3017 41.99 92.3017 41.29V37.6C92.3017 36.44 92.2817 35.49 92.2417 34.75C92.2017 33.99 92.1517 33.47 92.0917 33.19C91.9917 32.69 91.7617 32.36 91.4017 32.2C91.0617 32.04 90.4317 31.96 89.5117 31.96V30.94L96.4717 29.8V41.08ZM92.0617 23.44C92.0617 22.78 92.2817 22.23 92.7217 21.79C93.1817 21.33 93.7317 21.1 94.3717 21.1C95.0317 21.1 95.5817 21.33 96.0217 21.79C96.4817 22.23 96.7117 22.78 96.7117 23.44C96.7117 24.08 96.4817 24.63 96.0217 25.09C95.5817 25.53 95.0317 25.75 94.3717 25.75C93.7317 25.75 93.1817 25.53 92.7217 25.09C92.2817 24.63 92.0617 24.08 92.0617 23.44ZM110.942 25.33H110.282C110.222 24.69 110.082 24.26 109.862 24.04C109.662 23.82 109.242 23.71 108.602 23.71C107.982 23.71 107.592 23.74 107.432 23.8C107.272 23.84 107.192 23.94 107.192 24.1V29.92C107.192 30.44 107.272 30.81 107.432 31.03C107.612 31.23 108.022 31.35 108.662 31.39V32.14H103.772V31.39C104.412 31.35 104.822 31.23 105.002 31.03C105.182 30.81 105.272 30.44 105.272 29.92V24.1C105.272 23.94 105.192 23.84 105.032 23.8C104.872 23.74 104.532 23.71 104.012 23.71C103.732 23.71 103.472 23.73 103.232 23.77C103.012 23.79 102.812 23.85 102.632 23.95C102.472 24.05 102.342 24.21 102.242 24.43C102.142 24.65 102.082 24.95 102.062 25.33H101.432V22.9H110.942V25.33ZM121.052 22.9H124.682V23.65C124.142 23.65 123.792 23.77 123.632 24.01C123.492 24.25 123.422 24.74 123.422 25.48V29.56C123.422 29.96 123.432 30.28 123.452 30.52C123.492 30.76 123.562 30.94 123.662 31.06C123.762 31.18 123.902 31.27 124.082 31.33C124.262 31.37 124.502 31.39 124.802 31.39V32.14H120.152V31.39C120.452 31.39 120.692 31.37 120.872 31.33C121.052 31.27 121.192 31.18 121.292 31.06C121.392 30.94 121.452 30.77 121.472 30.55C121.512 30.33 121.532 30.03 121.532 29.65V24.4H121.412L117.932 32.26H117.542L114.272 24.4H114.152V29.56C114.152 29.96 114.162 30.28 114.182 30.52C114.222 30.76 114.292 30.94 114.392 31.06C114.492 31.18 114.632 31.27 114.812 31.33C114.992 31.37 115.232 31.39 115.532 31.39V32.14H111.692V31.39C111.992 31.39 112.232 31.37 112.412 31.33C112.592 31.27 112.732 31.18 112.832 31.06C112.932 30.94 112.992 30.77 113.012 30.55C113.052 30.33 113.072 30.03 113.072 29.65V25.39C113.072 24.71 112.982 24.25 112.802 24.01C112.642 23.77 112.312 23.65 111.812 23.65V22.9H115.772L118.322 29.23L121.052 22.9Z" fill="black"/>
<rect width="58" height="57" fill="black"/>
<path d="M42.61 40.18L46.66 28.6C47.14 27.26 47.38 26.26 47.38 25.6C47.38 24.98 47.16 24.58 46.72 24.4C46.3 24.2 45.64 24.1 44.74 24.1V22.9H53.26V24.1C52.5 24.1 51.81 24.29 51.19 24.67C50.59 25.03 50.13 25.65 49.81 26.53L42.58 46.3H39.91L34.69 30.46L28.75 46.3H26.26L19.9 28.78C19.52 27.76 19.17 26.94 18.85 26.32C18.53 25.7 18.19 25.23 17.83 24.91C17.47 24.59 17.08 24.38 16.66 24.28C16.24 24.18 15.74 24.13 15.16 24.13V22.9H26.5V24.13C25.48 24.13 24.78 24.23 24.4 24.43C24.02 24.61 23.83 24.92 23.83 25.36C23.83 25.52 23.84 25.68 23.86 25.84C23.88 25.98 23.92 26.15 23.98 26.35C24.04 26.53 24.11 26.76 24.19 27.04C24.29 27.32 24.42 27.67 24.58 28.09L28.78 40.18L33.64 26.92C33.44 26.38 33.24 25.94 33.04 25.6C32.84 25.26 32.6 24.99 32.32 24.79C32.06 24.59 31.76 24.45 31.42 24.37C31.08 24.27 30.67 24.19 30.19 24.13V22.9H40.78V24.13C39.94 24.13 39.32 24.24 38.92 24.46C38.52 24.66 38.32 25.06 38.32 25.66C38.32 25.96 38.36 26.31 38.44 26.71C38.54 27.11 38.67 27.57 38.83 28.09L42.61 40.18Z" fill="white"/>
</svg>
