<?xml version="1.0" encoding="utf-8"?>
<!-- Generator: Adobe Illustrator 25.0.1, SVG Export Plug-In . SVG Version: 6.00 Build 0)  -->
<svg version="1.0"
	 id="svg3996" xmlns:cc="http://creativecommons.org/ns#" xmlns:dc="http://purl.org/dc/elements/1.1/" xmlns:inkscape="http://www.inkscape.org/namespaces/inkscape" xmlns:rdf="http://www.w3.org/1999/02/22-rdf-syntax-ns#" xmlns:sodipodi="http://sodipodi.sourceforge.net/DTD/sodipodi-0.dtd" xmlns:svg="http://www.w3.org/2000/svg"
	 xmlns="http://www.w3.org/2000/svg" xmlns:xlink="http://www.w3.org/1999/xlink" x="0px" y="0px" viewBox="0 0 351.4 253.7"
	 style="enable-background:new 0 0 351.4 253.7;" xml:space="preserve">
<style type="text/css">
	.st0{fill:#2B2923;}
	.st1{fill:url(#path3830_1_);}
	.st2{fill:url(#path3835_1_);}
	.st3{fill:#FFFFFF;}
	.st4{fill:url(#path3928_1_);}
	.st5{fill:url(#path313_1_);}
	.st6{fill:url(#path3960_1_);}
	.st7{clip-path:url(#SVGID_2_);fill:url(#path3040_1_);}
	.st8{clip-path:url(#SVGID_4_);}
	.st9{clip-path:url(#SVGID_6_);}
	.st10{clip-path:url(#SVGID_8_);}
	.st11{clip-path:url(#SVGID_10_);}
	.st12{clip-path:url(#SVGID_12_);}
	.st13{clip-path:url(#SVGID_14_);}
	.st14{clip-path:url(#SVGID_16_);}
	.st15{fill:#F8C703;}
	.st16{fill:#E3AF01;}
	.st17{fill:#FEDF00;}
	.st18{fill:#FBEE02;}
	.st19{fill:#FBED02;}
	.st20{fill:#F4EF0F;}
	.st21{fill:#FFEC00;}
	.st22{fill:#FEF10C;}
	.st23{fill:#FBF040;}
	.st24{fill:#FFF5B2;}
	.st25{fill:#FCF48C;}
	.st26{fill:#FBEF06;}
	.st27{fill:#FFED0B;}
</style>
<defs>
	
		<inkscape:perspective  id="perspective4004" inkscape:persp3d-origin="372.04724 : 350.78739 : 1" inkscape:vp_x="0 : 526.18109 : 1" inkscape:vp_y="0 : 1000 : 0" inkscape:vp_z="744.09448 : 526.18109 : 1" sodipodi:type="inkscape:persp3d">
		</inkscape:perspective>
	
		<inkscape:perspective  id="perspective3885" inkscape:persp3d-origin="0.5 : 0.33333333 : 1" inkscape:vp_x="0 : 0.5 : 1" inkscape:vp_y="0 : 1000 : 0" inkscape:vp_z="1 : 0.5 : 1" sodipodi:type="inkscape:persp3d">
		</inkscape:perspective>
</defs>
<sodipodi:namedview  bordercolor="#666666" borderopacity="1.0" id="base" inkscape:current-layer="layer1" inkscape:cx="289.96979" inkscape:cy="269.48187" inkscape:document-units="px" inkscape:pageopacity="0.0" inkscape:pageshadow="2" inkscape:window-height="714" inkscape:window-maximized="1" inkscape:window-width="1280" inkscape:window-x="-4" inkscape:window-y="-4" inkscape:zoom="0.98086739" pagecolor="#ffffff" showgrid="false">
	</sodipodi:namedview>
<g id="layer1" transform="translate(75.063306,-691.59482)" inkscape:groupmode="layer" inkscape:label="Ebene 1">
	<path id="path35" class="st0" d="M99.3,852.5c-31.5,0-63,5.7-91.6,16.7c30.3-3.6,60.8-5.4,91.3-5.4c30.5,0,61.1,1.8,91.3,5.4
		C162.1,858,130.8,852.5,99.3,852.5z"/>
	
		<radialGradient id="path3830_1_" cx="-567.8337" cy="-88.5737" r="0.9132" gradientTransform="matrix(160.1089 0 0 -160.1107 91045.6328 -13422.3828)" gradientUnits="userSpaceOnUse">
		<stop  offset="0" style="stop-color:#8CBE44"/>
		<stop  offset="0.2414" style="stop-color:#00903A"/>
		<stop  offset="0.6207" style="stop-color:#007931"/>
		<stop  offset="0.8103" style="stop-color:#006E2C"/>
		<stop  offset="1" style="stop-color:#009B3F"/>
	</radialGradient>
	<path id="path3830" class="st1" d="M99,731.3c-45.8,0-82.9,37.1-82.9,82.9c0,16.1,4.5,31.1,12.4,43.8c1.9,3,4,5.9,6.2,8.6
		c0.1,0,0.2,0,0.3,0c21.3-1.8,42.6-2.7,64-2.7c21.4,0,42.7,0.9,64,2.7c0,0,0.1,0,0.1,0c2.2-2.7,4.3-5.6,6.2-8.6
		c7.9-12.7,12.5-27.7,12.5-43.8C181.9,768.5,144.8,731.3,99,731.3z"/>
	
		<radialGradient id="path3835_1_" cx="-567.7783" cy="-88.6365" r="0.9159" gradientTransform="matrix(157.2112 0 0 -157.2127 89391.7031 -13183.3115)" gradientUnits="userSpaceOnUse">
		<stop  offset="0" style="stop-color:#FFFAC2"/>
		<stop  offset="0.2414" style="stop-color:#FFF200"/>
		<stop  offset="0.2414" style="stop-color:#FFF200"/>
		<stop  offset="0.8832" style="stop-color:#E49618"/>
		<stop  offset="0.8832" style="stop-color:#E49618"/>
		<stop  offset="1" style="stop-color:#F2E426"/>
	</radialGradient>
	<path id="path3835" class="st2" d="M33.6,824l-6.4,8.8l9.8,4.4C35.4,832.9,34.2,828.5,33.6,824L33.6,824z M164.3,825.4
		c-0.8,4.4-2,8.8-3.7,13.1l10-4.4L164.3,825.4z M30.9,843.8c1.9,4.4,4.2,8.6,7,12.6c0.2,0.4,0.5,0.7,0.8,1.1l0.3-1.2l2.3-9.4
		L30.9,843.8L30.9,843.8z M166.7,844.9l-10.5,3l2,8.2l0.6,2.3c0.5-0.7,1-1.3,1.4-2c1.4-2,2.7-4.1,3.9-6.3
		C165,848.4,165.9,846.7,166.7,844.9z M47.2,855.5l-1.1,10.4c3.5-0.2,7.1-0.5,10.6-0.7C53.2,862.2,50,859,47.2,855.5z M149.9,856.5
		c-2.6,3.2-5.5,6.1-8.6,8.6c3.2,0.2,6.4,0.4,9.5,0.6L149.9,856.5z"/>
	<path id="path325" class="st3" d="M99.1,756.5c-20.3,0-40.1,10.8-50.6,29.9c-4.9,8.8-7.2,18.4-7.2,27.8c0,20.2,10.6,39.8,29.4,50.3
		c1.6-0.1,3.2-0.1,4.8-0.1c13.4-7.7,29.9-8.3,46.9,0c1.6,0,3.2,0.1,4.8,0.2c9-5.1,16.9-12.7,22.3-22.4c4.9-8.8,7.2-18.4,7.2-27.8
		c0-20.3-10.8-40-29.8-50.6C118.1,758.8,108.5,756.5,99.1,756.5L99.1,756.5z"/>
	
		<radialGradient id="path3928_1_" cx="-566.3137" cy="-90.2074" r="0.9121" gradientTransform="matrix(107.328 0 0 -107.329 60896.9531 -8907.7139)" gradientUnits="userSpaceOnUse">
		<stop  offset="0" style="stop-color:#FFFAC2"/>
		<stop  offset="0.2414" style="stop-color:#FFF200"/>
		<stop  offset="0.2414" style="stop-color:#FFF200"/>
		<stop  offset="0.8832" style="stop-color:#E49618"/>
		<stop  offset="0.8832" style="stop-color:#E49618"/>
		<stop  offset="1" style="stop-color:#F2E426"/>
	</radialGradient>
	<path id="path3928" class="st4" d="M98.7,758.9c-6.3,0-12.5,1.2-18.3,3.3c-0.5,0.2-1.1,0.4-1.6,0.6c-11.6,4.6-21.7,13-28.2,24.7
		c-0.6,1-1.1,2.1-1.6,3.2c-3.6,7.6-5.3,15.6-5.3,23.5c0,2.6,0.2,5.3,0.6,7.9c1.7,12,7.3,23.2,16.2,31.9c1.1,1,2.1,2,3.3,2.9
		c0.1,0.1,0.1,0.1,0.2,0.2c2.6,2.1,5.4,4,8.4,5.6c1.1,0.6,2.2,1.1,3.3,1.7c1.3,0,2.6-0.1,3.8-0.1c0.1,0,0.2,0,0.3,0
		c0.1,0,0.2,0,0.4,0c0.2,0,0.4,0,0.6,0c0,0,0.1,0,0.1,0c5.4-0.1,10.7-0.2,16.1-0.2h0h0.6h0.2c0.1,0,0.2,0,0.4,0h0.3h0.7h0.9h0.2
		c0.2,0,0.4,0,0.7,0h0.1c1.8,0,3.7,0,5.5,0c5.4,0.1,10.7,0.2,16,0.3c4.8-2.2,9.2-5.1,13.2-8.7c0.6-0.6,1.2-1.1,1.8-1.7
		c3.8-3.7,7.2-8,9.9-13c3.6-6.5,5.8-13.5,6.6-20.5c0.1-1,0.2-2,0.2-3c0.1-1.1,0.1-2.2,0.1-3.2c0-19.5-10.3-38.4-28.6-48.5
		c-1.8-1-3.7-1.9-5.6-2.7c-1.8-0.7-3.6-1.4-5.4-1.9c-5.1-1.5-10.2-2.3-15.4-2.3L98.7,758.9L98.7,758.9z"/>
	
		<radialGradient id="path313_1_" cx="-566.3143" cy="-90.2084" r="0.9114" gradientTransform="matrix(107.328 0 0 -107.329 60896.9531 -8907.7139)" gradientUnits="userSpaceOnUse">
		<stop  offset="0" style="stop-color:#E6B908"/>
		<stop  offset="0.2414" style="stop-color:#E6B908"/>
		<stop  offset="0.635" style="stop-color:#E6B908"/>
		<stop  offset="0.8832" style="stop-color:#CE7917"/>
		<stop  offset="0.8832" style="stop-color:#CE7917"/>
		<stop  offset="1" style="stop-color:#D7B111"/>
	</radialGradient>
	<path id="path313" class="st5" d="M107.5,767.1c0.2-0.1,5.3-3.4,12.7-4l0,0c-1.8-0.7-3.6-1.4-5.4-1.9l0,0
		C110.2,763.7,107.8,766.8,107.5,767.1 M78.7,762.8c0.6,1.8,0.7,3.8,0.7,5.3l0,0c-0.3,0.3-0.7,0.7-1.1,1l0,0
		c3.4-0.6,8.4-1.3,12.6-1.3l0,0c1,0,1.9,0,2.7,0.1l0,0c0,0,0.8,2.4,0.8,4.9l0,0c0,0,7.4,3.2,9.4,3.2l0,0c0.1,0,0.2,0,0.2,0l0,0
		c0,0,0.1-1.6,1.4-2.7l0,0c0,0,0.6,0.1,1.6,0.3l0,0c-0.3-2.1-0.7-4.1-1.2-5.4l0,0l-0.2-0.4l-0.4-0.2c-0.4-0.2-6.9-2.9-14.6-2.9l0,0
		c-2.3,0-4.8,0.2-7.2,0.9l0,0c-0.8-1-1.9-2.2-3.3-3.4l0,0C79.8,762.3,79.2,762.5,78.7,762.8 M107.5,767.1
		C107.5,767.1,107.5,767.1,107.5,767.1L107.5,767.1C107.5,767.1,107.5,767.1,107.5,767.1 M51.2,792.6c-0.8-0.6-1.6-1.3-2.3-1.9l0,0
		c-3.6,7.6-5.3,15.6-5.3,23.5l0,0c0,2.6,0.2,5.3,0.6,7.9l0,0c0.7-1.3,1.6-2.5,2.7-3.5l0,0c1.7,2.1,5.4,5.4,11.9,7.9l0,0
		c-5.1-3.5-8.1-8.9-9.5-11.8l0,0c-0.2-2.8-0.4-9.7,2.4-18.5l0,0c1.1-1.2,2.2-2.5,3.8-3.9l0,0c0-0.4-0.1-0.7-0.1-1.1l0,0
		c0-0.7,0.1-1.3,0.2-2l0,0C53.9,790.2,52.5,791.3,51.2,792.6 M140.8,795.6l-9.3,1.7c0.9,1.1,1.9,2.2,2.9,3.3l0,0c0,0,7.9-0.7,11-2.6
		l0,0c0,0,0.4,0.6,0.2,2l0,0c-0.4,2.7-3,8.5-14.9,19l0,0c0,0-0.6,3.4-0.6,7.9l0,0c0,0.9,0,1.9,0.1,2.9l0,0l7.5,5.7
		c0.6-0.4,1.3-0.8,2-1.2l0,0c0,0,1-1.2,1.3-2.5l0,0c0,0,0.4,0.4,0.6,1.3l0,0c2.5-2.5,6.3-6.7,8.8-12.1l0,0l3.6-0.6
		c0.1-1,0.2-2,0.3-3l0,0l-2.6-0.9c-0.3-3.1-1.5-12.4-7.2-20l0,0c0.5-3.1,0.7-8.8-2.5-15.7l0,0C143.4,787,141.9,792.7,140.8,795.6
		 M79.9,808c-1.4,4.2-1.8,8.2-1.9,10.5c-4.1,2-12.6,6.3-16,9.9l-0.3,0.3v0.4c0,0.5,0.1,11.4,6.7,20c-0.5,1.6-1.3,3.1-2.1,4.3
		c-1,1.6-2,2.8-2.6,3.4c0.1,0.1,0.1,0.1,0.2,0.2c1-0.3,3.2-1.2,5.8-3.8c0.6-0.6,1.2-1.3,1.8-2c1.4,0.5,3.6,1.1,6.4,1.6
		c2.2,0.4,4.8,0.6,7.6,0.6c2.5,0,5.3-0.2,8.1-0.7l0.5-0.1l0.1-0.2l0.1-0.3c0.1-0.2,1.1-2.6,2.2-5.7c-1.1-2.9-2.2-5.8-2.8-8.3
		c0,0,0.3-3.9,2.8-7.2c0,0-0.1-0.6-0.3-1.5c-3.7-2.8-9.5-7.4-14-11c-0.2-1.8-0.6-6.2-0.6-10.5c-0.4,0-0.8,0-1.3,0
		C80.2,808,80.1,808,79.9,808L79.9,808z M136.9,846.7c-0.3,0.8-0.5,1.5-0.5,2.1C136.6,848.1,136.8,847.4,136.9,846.7z M136.4,848.9
		c-0.1,0.1-1.2,0.7-2.4,0.7h0c-0.9,1.7-1.7,3-2.3,3.9c-0.2,0.2-0.3,0.5-0.4,0.6l-0.1,0c-6.2,5.1-15.8,6.8-20.4,7.4
		c-2.8-0.8-5.4-1.8-7.7-2.8l-1,0.1c0,0-0.1-0.2-0.3-0.7c-3.9-1.8-6.6-3.3-6.6-3.4c0.4,0.5,1.8,5,11.4,8.7l-0.2,0.4
		c5.4,0.1,10.7,0.2,16.1,0.3c4.8-2.2,9.2-5.1,13.2-8.7l-1.8-0.9c0.2-0.3,0.4-0.7,0.6-1C135.1,852.5,135.8,850.9,136.4,848.9
		L136.4,848.9z"/>
	
		<radialGradient id="path3960_1_" cx="-566.1567" cy="-90.383" r="0.9116" gradientTransform="matrix(103.8541 0 0 -103.8551 58913.0312 -8616.9072)" gradientUnits="userSpaceOnUse">
		<stop  offset="0" style="stop-color:#E6E86A"/>
		<stop  offset="0.292" style="stop-color:#00AB4E"/>
		<stop  offset="0.4931" style="stop-color:#009343"/>
		<stop  offset="0.8723" style="stop-color:#004B20"/>
		<stop  offset="1" style="stop-color:#00AB4E"/>
	</radialGradient>
	<path id="path3960" class="st6" d="M80.8,768.7c-0.9,0.1-1.7,0.2-2.5,0.4c-0.9,0.2-1,0.2-1.6,0.3C77.9,769.2,79.2,769,80.8,768.7z
		 M87.4,771c-7.1,0-16.4,2.1-16.4,2.1s-4.7,2.6-9.4,6.5c-2.4,2.4-4.5,5.1-5.5,7.9c3.8,10.2,13.2,17.7,18.1,21c2.1-0.4,4-0.5,5.7-0.6
		c0.2,0,0.3,0,0.5,0c0.4,0,0.9,0,1.3,0c2.6,0.1,4.7,0.6,6.1,1c5.4,0.4,6.8,3.2,6.8,3.2c1.4,3.9-0.1,7-0.1,7c4.8,3.4,6.7,14,6.7,14
		c-2.4,3.3-2.8,7.2-2.8,7.2c0.9,3.6,2.7,8.1,4.4,12.1c1,2.4,2,4.6,2.7,6.1l8.4-0.8c1.6-1.9,2.8-3.6,3.7-5c3.8-6,3.2-8.7,3.2-8.7
		c1.3-0.3,2.6-1,3.7-1.7c0.1-1.1,0-1.6,0-1.6c1.2-0.2,2.3-0.8,3.3-1.4c-2.3-7.7-0.5-17.1-0.5-17.1c17.9-15.8,14.7-20.9,14.7-20.9
		c-3.1,1.9-11,2.6-11,2.6c-11.5-11.9-13.5-25.5-13.5-25.5c-0.3,0-0.6,0-1,0c-4.8,0-14.3-1.9-14.3-1.9c-1.3,1-1.4,2.7-1.4,2.7
		c-0.1,0-0.2,0-0.3,0c-2,0-9.4-3.2-9.4-3.2c0-2.5-0.8-4.9-0.8-4.9C89.3,771,88.3,771,87.4,771L87.4,771z M114.2,774.7
		c1.4,0.2,2.8,0.3,4.1,0.4C117.1,775,115.7,774.9,114.2,774.7z M145.4,798.1c-0.1,0.1-0.3,0.2-0.5,0.2c0.2,0.6,0.4,1.1,0.6,1.7v-1.5
		C145.5,798.2,145.4,798.1,145.4,798.1z M141.9,834.2c-3.8,3.4-6.6,5.9-6.6,5.9c0.8,2.9-0.3,6.3-2,9.4c0.2,0.1,0.5,0.1,0.7,0.1h0
		c1.1,0,2.2-0.6,2.4-0.7v-0.1c0-0.6,0.2-1.3,0.5-2.1c1.1-3,3.6-6.7,3.6-6.7C141.8,837.4,142,835.5,141.9,834.2L141.9,834.2z"/>
	<g>
		<g>
			<defs>
				<path id="SVGID_1_" d="M99.1,731.5c-45.8,0-82.9,37.1-82.9,82.9c0,16.1,4.5,31.1,12.4,43.8c1.9,3,4,5.9,6.2,8.6
					c0.1,0,0.2,0,0.3,0c21.3-1.8,42.6-2.7,64-2.7c21.4,0,42.7,0.9,64,2.7c0,0,0.1,0,0.1,0c2.2-2.7,4.3-5.6,6.2-8.6
					c7.9-12.7,12.5-27.7,12.5-43.8C182,768.6,144.9,731.5,99.1,731.5z"/>
			</defs>
			<clipPath id="SVGID_2_">
				<use xlink:href="#SVGID_1_"  style="overflow:visible;"/>
			</clipPath>
			
				<radialGradient id="path3040_1_" cx="-566.579" cy="-107.8417" r="0.9123" gradientTransform="matrix(114.3479 0 0 -23.2627 64886.168 -1634.8783)" gradientUnits="userSpaceOnUse">
				<stop  offset="0" style="stop-color:#505A50;stop-opacity:0.9294"/>
				<stop  offset="0.8407" style="stop-color:#3E443C;stop-opacity:0.1216"/>
				<stop  offset="1" style="stop-color:#808080;stop-opacity:0"/>
			</radialGradient>
			<path id="path3040" class="st7" d="M203.4,873.8c0,11.7-46.7,21.2-104.3,21.2c-57.6,0-104.3-9.5-104.3-21.2
				c0-11.7,46.7-21.2,104.3-21.2C156.7,852.6,203.4,862.1,203.4,873.8z"/>
		</g>
	</g>
	<g>
		<g>
			<defs>
				<path id="SVGID_3_" d="M-219.3-117.1c0,0,1.2-5.8-6.6-18.2l0,0c1,0,1.9-0.1,2.9-0.1l0,0c0.6,0.7,1.1,1.5,1.7,2.2l0,0
					c0,0,0,0,0,0l0,0c0,0.1,0.1,0.1,0.1,0.2l0,0c0,0,0,0,0,0l0,0c0,0.1,0.1,0.1,0.1,0.2l0,0c0,0,0,0,0,0l0,0c0,0.1,0.1,0.1,0.1,0.2
					l0,0c0,0,0,0,0,0l0,0c0.1,0.1,0.1,0.1,0.1,0.2l0,0c0,0,0,0,0,0l0,0c0,0.1,0.1,0.1,0.1,0.2l0,0c0,0,0,0,0,0.1l0,0
					c0,0.1,0.1,0.1,0.1,0.2l0,0c0,0,0,0,0,0.1l0,0c0,0,0.1,0.1,0.1,0.2l0,0c0,0,0,0,0,0.1l0,0c0,0.1,0.1,0.1,0.1,0.2l0,0
					c0,0,0,0,0,0l0,0c0.2,0.3,0.4,0.5,0.5,0.8l0,0c0,0,0,0.1,0.1,0.1l0,0c0,0,0,0.1,0.1,0.1l0,0c0,0,0.1,0.1,0.1,0.1l0,0
					c0,0,0,0.1,0.1,0.1l0,0c0,0,0,0.1,0.1,0.1l0,0c0,0,0,0.1,0.1,0.1l0,0c0,0,0.1,0.1,0.1,0.1l0,0c0,0,0,0.1,0.1,0.1l0,0
					c0,0,0.1,0.1,0.1,0.1l0,0c0,0,0,0.1,0.1,0.1l0,0c0,0,0.1,0.1,0.1,0.1l0,0c0,0,0,0.1,0.1,0.1l0,0c0,0,0.1,0.1,0.1,0.1l0,0
					c0,0,0,0.1,0.1,0.1l0,0c0,0,0.1,0.1,0.1,0.1l0,0c0,0,0,0.1,0.1,0.1l0,0c0,0,0.1,0.1,0.1,0.1l0,0c0,0,0,0.1,0.1,0.1l0,0
					c0,0,0.1,0.1,0.1,0.1l0,0c0,0,0,0.1,0.1,0.1l0,0c0,0,0.1,0.1,0.1,0.1l0,0c0,0,0,0.1,0.1,0.1l0,0c0,0.1,0.1,0.1,0.1,0.2l0,0
					c0,0,0,0,0,0l0,0c0,0.1,0.1,0.1,0.1,0.2l0,0c0,0,0,0,0,0l0,0c0.2,0.3,0.4,0.6,0.5,0.8l0,0c0,0,0,0,0,0l0,0
					c0,0.1,0.1,0.1,0.1,0.2l0,0c0,0,0,0,0,0l0,0c0,0.1,0.1,0.1,0.1,0.2l0,0c0,0,0,0,0,0l0,0c0,0.1,0.1,0.1,0.1,0.2l0,0c0,0,0,0,0,0
					l0,0c0,0.1,0.1,0.1,0.1,0.2l0,0l0,0c0,0.1,0.1,0.1,0.1,0.2l0,0c0,0,0,0,0,0l0,0c0,0.1,0.1,0.1,0.1,0.2l0,0c0,0,0,0,0,0l0,0
					c0,0,0.1,0.1,0.1,0.2l0,0c0,0,0,0,0,0l0,0c0,0.1,0.1,0.1,0.1,0.2l0,0c0,0,0,0,0,0l0,0c0,0.1,0.1,0.1,0.1,0.2l0,0c0,0,0,0,0,0
					l0,0c3.1,5.4,4.1,9.2,4.4,11.6l0,0C-214-115.1-216.5-116.5-219.3-117.1"/>
			</defs>
			<clipPath id="SVGID_4_">
				<use xlink:href="#SVGID_3_"  style="overflow:visible;"/>
			</clipPath>
			<g id="g355" transform="matrix(2.0820361,0,0,-2.0820361,-388.92632,1535.2883)" class="st8">
				
					<image style="overflow:visible;enable-background:new    ;" width="7" height="10" id="image365" xlink:href="D8CB9991.png"  transform="matrix(0.4719 0 0 -0.5225 243.2724 332.8836)">
				</image>
			</g>
		</g>
	</g>
	<g>
		<g>
			<defs>
				<path id="SVGID_5_" d="M-180-96.9c-6.2-3.2-11.7-7.6-11.7-7.6l0,0c0,0,0-0.1,0-0.1l0,0c0,0,0,0,0,0l0,0c0,0,0-0.1,0-0.1l0,0
					c0,0,0,0,0-0.1l0,0c0,0,0,0,0-0.1l0,0c0,0,0-0.1,0-0.1l0,0c0,0,0,0,0,0l0,0c-0.6-2.6-0.5-5-0.4-6.4l0,0c0,0,0-0.1,0-0.1l0,0v0v0
					c0-0.1,0-0.1,0-0.2l0,0v0c0,0,0-0.1,0-0.1l0,0v0c0,0,0,0,0-0.1l0,0v0c0-0.1,0-0.1,0-0.2l0,0c0-0.2,0-0.3,0.1-0.3l0,0
					c0,0,0,0,0,0l0,0c0,0,0,0,0,0l0,0c0,0,0,0,0,0l0,0l-3.8-4c0.3-1.2,0.3-2.6,0.3-4l0,0c0-2.9-0.4-5.6-0.4-5.9l0,0c0,0,0,0,0,0v0v0
					l0,0c0,0,0-0.1,0.1-0.1l0,0c0,0,0,0,0,0l0,0c0,0,0,0,0-0.1l0,0c0,0,0,0,0,0l0,0c0,0,0,0,0-0.1l0,0c0,0,0,0,0.1-0.1l0,0
					c0,0,0,0,0,0l0,0c0,0,0,0,0,0l0,0c0,0,0,0,0,0l0,0c0,0,0,0,0,0l0,0c0,0,0,0,0,0l0,0c0.1-0.1,0.1-0.1,0.2-0.2l0,0c0,0,0,0,0,0
					l0,0c0,0,0,0,0.1-0.1l0,0v0c0.6-0.6,1.3-1,2.1-1.2l0,0c3.5,6.5,5.8,13.6,4.2,19.7l0,0c0,0,5.6,5.2,13.6,12.2l0,0
					c0,0.1,0,0.1,0,0.2l0,0c0,0,0,0,0,0l0,0c0,0,0,0,0,0.1l0,0c-0.4,2.8-1.5,4.3-1.7,4.5l0,0l0,0v0l0,0v0v0c0,0,0,0,0,0l0,0l0,0
					C-177.9-94.4-180-96.9-180-96.9"/>
			</defs>
			<clipPath id="SVGID_6_">
				<use xlink:href="#SVGID_5_"  style="overflow:visible;"/>
			</clipPath>
			<g id="g369" transform="matrix(2.0820361,0,0,-2.0820361,-388.92632,1535.2883)" class="st9">
				
					<image style="overflow:visible;enable-background:new    ;" width="9" height="15" id="image379" xlink:href="D8CB9993.png"  transform="matrix(0.5571 0 0 -0.5524 250.1065 337.7323)">
				</image>
			</g>
		</g>
	</g>
	<g>
		<g>
			<defs>
				<path id="SVGID_7_" d="M-315.5,37.4L-315.5,37.4L-315.5,37.4C-315.5,37.4-315.5,37.4-315.5,37.4L-315.5,37.4L-315.5,37.4
					C-315.6,37.4-315.6,37.4-315.5,37.4L-315.5,37.4c-0.1-0.1-0.1-0.1-0.1-0.1l0,0c0,0,0,0-0.1,0l0,0l0,0h0c0,0,0,0,0,0l0,0
					c-1.9-1.1-16-9.2-26.9-20.2l0,0c9.9,8.2,19.6,13.5,19.6,13.5l0,0c0,0,19.3,4.4,34.2,4.4l0,0c2,0,3.9-0.1,5.6-0.3l0,0
					c0,0,1.7-5,1.7-10.2l0,0c0,0,15.4-6.7,19.6-6.7l0,0c0.2,0,0.4,0,0.5,0l0,0c0,0,0.2,3.4,2.9,5.6l0,0c0,0,20-4,29.8-4l0,0
					c0.7,0,1.4,0,2,0.1l0,0c0,0,4.3-28.4,28.2-53.1l0,0c0,0,16.5,1.5,22.9,5.3l0,0c0,0,6.7-10.7-30.6-43.6l0,0
					c0,0-3.6-19.6,1.1-35.6l0,0c4.1,2.7,6.9,6.2,7.4,6.7l0,0c0,0,0,0,0,0l0,0c0,0,0,0,0,0l0,0v0c0,0,0,0,0,0l0,0
					c0,0.1-0.1,0.2-0.1,0.3l0,0c0,0,0,0,0,0.1l0,0c0,0.1-0.1,0.2-0.1,0.3l0,0c0,0,0,0,0,0l0,0c0,0.1-0.1,0.2-0.1,0.3l0,0
					c0,0,0,0,0,0l0,0c0,0.1,0,0.2-0.1,0.3l0,0c0,0,0,0,0,0l0,0c0,0.1,0,0.2-0.1,0.3l0,0c0,0,0,0,0,0l0,0c0,0.1,0,0.2-0.1,0.3l0,0
					c0,0,0,0,0,0l0,0c-3.9,15.4-0.7,33.2-0.6,33.8l0,0v0c0,0,0,0,0,0l0,0v0c0.1,0.1,0.2,0.1,0.3,0.2l0,0c0,0,0,0,0.1,0.1l0,0
					c0.1,0.1,0.1,0.1,0.2,0.2l0,0c0,0,0,0,0.1,0.1l0,0c0.1,0.1,0.2,0.1,0.2,0.2l0,0c0,0,0,0,0,0l0,0c0.1,0.1,0.2,0.2,0.3,0.2l0,0
					c0,0,0,0,0,0l0,0c0.1,0.1,0.2,0.1,0.2,0.2l0,0c0,0,0,0,0,0l0,0l0.3,0.2c0,0,0,0,0,0l0,0c0.1,0.1,0.2,0.2,0.3,0.2l0,0
					c0,0,0,0,0,0l0,0c0.1,0.1,0.2,0.2,0.3,0.2l0,0c0,0,0,0,0,0l0,0l0.8,0.7c0,0,0,0,0,0l0,0c22.1,20.1,27.1,31.4,27.9,36.8l0,0
					c-0.4,1.2-0.8,2.4-1.3,3.6l0,0c-1.2-0.6-2.6-1.1-4.2-1.6l0,0c0,0,0,0,0,0l0,0c0,0-0.1,0-0.1,0l0,0c0,0,0,0,0,0l0,0
					c0,0,0,0-0.1,0l0,0c0,0,0,0-0.1,0l0,0c0,0,0,0,0,0l0,0c-7.3-2.2-17-3.1-17.4-3.1l0,0h0c-23.9,24.7-28.2,53.1-28.2,53.1l0,0
					c-8.6-0.6-30.3,3.6-31.7,3.9l0,0c0,0-0.1,0-0.1,0l0,0c-2.7-2.2-2.9-5.6-2.9-5.6l0,0c-3.2-0.7-19.5,6.4-20.1,6.6l0,0c0,0,0,0,0,0
					l0,0c0,5.2-1.7,10.2-1.7,10.2l0,0c-1.4,0.1-3,0.2-4.5,0.2l0,0c-0.4,0-0.7,0-1.1,0l0,0C-296.2,41.8-315.5,37.4-315.5,37.4"/>
			</defs>
			<clipPath id="SVGID_8_">
				<use xlink:href="#SVGID_7_"  style="overflow:visible;"/>
			</clipPath>
			<g id="g383" transform="matrix(2.0820361,0,0,-2.0820361,-388.92632,1535.2883)" class="st10">
				
					<image style="overflow:visible;enable-background:new    ;" width="63" height="54" id="image393" xlink:href="D8CB9996.png"  transform="matrix(0.6413 0 0 -0.643 216.3477 368.8033)">
				</image>
			</g>
		</g>
	</g>
	<g>
		<g>
			<defs>
				<path id="SVGID_9_" d="M-285.9-44.7C-285.9-44.7-285.9-44.7-285.9-44.7L-285.9-44.7C-285.9-44.8-285.9-44.8-285.9-44.7
					L-285.9-44.7c1.8-0.7,2.7-1.2,2.7-1.2l0,0c0-0.1,0-0.1,0.1-0.2l0,0c0,0,0,0,0-0.1l0,0c0,0,0-0.1,0.1-0.1l0,0c0,0,0,0,0-0.1l0,0
					c0,0,0-0.1,0-0.1l0,0c0,0,0-0.1,0-0.1l0,0c0,0,0,0,0-0.1l0,0c0,0,0-0.1,0-0.1l0,0c0,0,0,0,0,0l0,0c0-0.1,0-0.1,0.1-0.2l0,0
					c0,0,0,0,0,0l0,0c0,0,0-0.1,0-0.1l0,0c0,0,0,0,0,0l0,0c0-0.1,0-0.1,0-0.2l0,0c0,0,0,0,0,0l0,0c0-0.1,0-0.1,0.1-0.2l0,0
					c0,0,0,0,0,0l0,0c0,0,0-0.1,0-0.1l0,0c0,0,0,0,0-0.1l0,0c0,0,0-0.1,0-0.1l0,0c0,0,0-0.1,0-0.1l0,0c0,0,0,0,0-0.1l0,0
					c0,0,0-0.1,0-0.1l0,0c0,0,0,0,0-0.1l0,0c0,0,0-0.1,0-0.1l0,0c0,0,0,0,0-0.1l0,0c0,0,0-0.1,0-0.1l0,0c0,0,0,0,0,0l0,0
					c0-0.1,0-0.2,0.1-0.3l0,0v0c0.3-1.4,0.4-2.8,0.4-4.1l0,0c0-1.4-0.2-2.7-0.4-3.8l0,0v0c0-0.1,0-0.1,0-0.2l0,0v0
					c0-0.1,0-0.1,0-0.2l0,0c0,0,0,0,0,0l0,0c0-0.1,0-0.1,0-0.2l0,0v0c0,0,0-0.1,0-0.1l0,0c0,0,0,0,0,0l0,0c0,0,0-0.1,0-0.1l0,0
					c0,0,0,0,0,0l0,0c0,0,0,0,0-0.1l0,0c0,0,0,0,0,0l0,0c0,0,0-0.1,0-0.1l0,0c0,0,0,0,0,0l0,0c0,0,0-0.1,0-0.1l0,0c0,0,0,0,0,0l0,0
					c0,0,0,0,0-0.1l0,0c0,0,0,0,0,0l0,0c0,0,0,0,0-0.1l0,0c0,0,0,0,0,0l0,0c0,0,0-0.1,0-0.1l0,0c0,0,0,0,0,0l0,0c0,0,0-0.1,0-0.1
					l0,0c0,0,0,0,0,0l0,0c0,0,0,0,0-0.1l0,0c0,0,0,0,0,0l0,0c0,0,0-0.1,0-0.1l0,0c0,0,0,0,0,0l0,0c0,0,0,0,0-0.1l0,0c0,0,0,0,0,0
					l0,0c0,0,0,0,0-0.1l0,0c0,0,0,0,0,0l0,0c0,0,0,0,0,0l0,0c0,0,0,0,0,0l0,0c0,0,0,0,0-0.1l0,0c0,0,0,0,0,0l0,0c0,0,0,0,0-0.1l0,0
					c0,0,0,0,0,0l0,0c0,0,0-0.1,0-0.1l0,0c0,0,0,0,0,0l0,0c0,0,0,0,0,0l0,0c0,0,0,0,0-0.1l0,0c0,0,0,0,0,0l0,0c0,0,0,0,0,0l0,0
					c0,0,0,0,0,0l0,0c0,0,0,0,0,0l0,0c0,0,0,0,0-0.1l0,0c0,0,0,0,0,0l0,0c0,0,0,0,0,0l0,0c0,0,0,0,0,0l0,0c0,0,0,0,0-0.1l0,0
					c0,0,0,0,0,0l0,0c0,0,0,0,0,0l0,0c0,0,0,0,0,0l0,0c0,0,0,0,0-0.1l0,0c0,0,0,0,0,0l0,0c0,0,0,0,0-0.1l0,0c0,0,0,0,0,0l0,0
					c0,0,0,0,0-0.1l0,0c0,0,0,0,0,0l0,0c0,0,0,0,0,0l0,0c0,0,0,0,0,0l0,0c0,0,0,0,0,0l0,0c0,0,0,0,0,0l0,0c0,0,0,0,0,0l0,0
					c0,0,0,0,0,0l0,0c0,0,0-0.1,0-0.1l0,0c0,0,0,0,0,0l0,0c0,0,0,0,0,0l0,0c0,0,0,0,0,0l0,0c0,0,0,0,0,0l0,0c0,0,0,0,0,0l0,0
					c0,0,0,0,0,0l0,0l0,0v0c0,0,0,0,0,0l0,0c0,0,0,0,0,0l0,0c0,0,0,0,0,0l0,0l0,0c0,0,0,0,0,0l0,0c0,0,0,0,0,0l0,0c0,0,0,0,0,0l0,0
					l0,0v0c0,0,0,0,0,0l0,0c0,0,0,0,0,0l0,0c0,0,0-0.1,0-0.1l0,0c0,0,0,0,0,0l0,0c0,0,0,0,0,0l0,0c0,0,0,0,0,0l0,0v0c0,0,0,0,0,0
					l0,0l0,0c10-7,13.9-29.1,13.9-29.1l0,0c-5.1-6.9-5.8-14.9-5.8-14.9l0,0c0-0.1,0-0.1,0.1-0.2l0,0c0,0,0-0.1,0-0.1l0,0
					c0,0,0-0.1,0-0.1l0,0c0,0,0-0.1,0-0.1l0,0c0,0,0-0.1,0-0.1l0,0c1-3.8,2.4-8,4-12.3l0,0c0-0.1,0.1-0.1,0.1-0.2l0,0
					c0,0,0-0.1,0-0.1l0,0c0,0,0-0.1,0.1-0.2l0,0c0,0,0-0.1,0-0.1l0,0c0-0.1,0-0.1,0.1-0.2l0,0c0,0,0,0,0-0.1l0,0
					c0.5-1.2,0.9-2.4,1.4-3.6l0,0c1.7-4.4,3.6-8.7,5.3-12.5l0,0c2.5,0,5,0,7.4,0l0,0c-3.5,8.2-7.2,17.7-9.1,25.2l0,0
					c0,0,0.7,8,5.8,14.9l0,0c0,0-3.9,22.1-13.9,29.1l0,0c0,0,3.3,6.5,0.3,14.7l0,0c0,0-3,5.8-14.2,6.7l0,0
					C-287.2-44.3-286.5-44.5-285.9-44.7"/>
			</defs>
			<clipPath id="SVGID_10_">
				<use xlink:href="#SVGID_9_"  style="overflow:visible;"/>
			</clipPath>
			<g id="g397" transform="matrix(2.0820361,0,0,-2.0820361,-388.92632,1535.2883)" class="st11">
				
					<image style="overflow:visible;enable-background:new    ;" width="12" height="35" id="image407" xlink:href="D8CB9997.png"  transform="matrix(0.5843 0 0 -0.6037 229.0416 348.9999)">
				</image>
			</g>
		</g>
	</g>
	<g>
		<g>
			<defs>
				<path id="SVGID_11_" d="M-355.3-6.8c0-0.8,0-1.5,0.1-2.3l0,0c0.1-0.5,0.2-1.1,0.3-1.6l0,0c5.2-23.6,27.1-35.2,27.1-35.2l0,0
					c0.1,0,0.3,0.1,0.4,0.1l0,0c0.1,0,0.1,0,0.2,0.1l0,0c0.1,0,0.1,0,0.2,0.1l0,0c0.1,0,0.2,0,0.2,0.1l0,0c0.1,0,0.1,0,0.2,0l0,0
					c0.1,0,0.2,0.1,0.3,0.1l0,0c0.1,0,0.1,0,0.1,0l0,0c0.1,0,0.2,0.1,0.3,0.1l0,0c0,0,0.1,0,0.1,0l0,0c0.3,0.1,0.6,0.2,1,0.3l0,0
					c0,0,0.1,0,0.1,0l0,0c0.1,0,0.2,0,0.3,0.1l0,0c0,0,0.1,0,0.1,0l0,0c0.1,0,0.2,0,0.3,0.1l0,0c0,0,0.1,0,0.1,0l0,0
					c0.1,0,0.2,0,0.3,0.1l0,0c0,0,0.1,0,0.1,0l0,0c0.1,0,0.2,0,0.3,0.1l0,0c0,0,0.1,0,0.1,0l0,0c0.2,0,0.3,0.1,0.5,0.1l0,0
					c0,0,0.1,0,0.1,0l0,0l0.2,0.1c0.1,0,0.1,0,0.2,0l0,0c0.1,0,0.1,0,0.2,0l0,0c0.1,0,0.1,0,0.2,0l0,0c0.1,0,0.1,0,0.2,0.1l0,0
					c0.1,0,0.1,0,0.2,0l0,0c0.1,0,0.1,0,0.2,0.1l0,0c0.1,0,0.1,0,0.2,0l0,0c0.3,0.1,0.6,0.1,0.9,0.2l0,0c0,0,0,0,0,0l0,0
					c0.1,0,0.2,0,0.3,0.1l0,0c0,0,0,0,0.1,0l0,0c0.1,0,0.2,0,0.3,0.1l0,0c0,0,0,0,0,0l0,0c1,0.2,2.1,0.4,3.1,0.6l0,0
					c-10.2,6.9-29.8,22.4-37.7,43.7l0,0C-354.8-1.9-355.3-4.3-355.3-6.8"/>
			</defs>
			<clipPath id="SVGID_12_">
				<use xlink:href="#SVGID_11_"  style="overflow:visible;"/>
			</clipPath>
			<g id="g411" transform="matrix(2.0820361,0,0,-2.0820361,-388.92632,1535.2883)" class="st12">
				
					<image style="overflow:visible;enable-background:new    ;" width="16" height="19" id="image421" xlink:href="D8CB9992.png"  transform="matrix(0.5567 0 0 -0.5799 213.4527 359.3235)">
				</image>
			</g>
		</g>
	</g>
	<g>
		<g>
			<defs>
				<path id="SVGID_13_" d="M-233.7-145.7l1.7,0.2c3.5,3.7,6.5,7.1,8.9,10.2l0,0c-0.9,0-1.9,0.1-2.9,0.1l0,0
					C-227.9-138.3-230.4-141.8-233.7-145.7"/>
			</defs>
			<clipPath id="SVGID_14_">
				<use xlink:href="#SVGID_13_"  style="overflow:visible;"/>
			</clipPath>
			<g id="g561" transform="matrix(2.0820361,0,0,-2.0820361,-388.92632,1535.2883)" class="st13">
				
					<image style="overflow:visible;enable-background:new    ;" width="6" height="6" id="image571" xlink:href="D8CB999D.png"  transform="matrix(0.4494 0 0 -0.4494 241.3636 327.9319)">
				</image>
			</g>
		</g>
	</g>
	<g>
		<g>
			<defs>
				<path id="SVGID_15_" d="M-258-148l6.9,0.7c-1.5,3.3-3.6,7.8-5.7,12.8l0,0c-2.5,0-5,0-7.4,0l0,0C-260.8-142.3-258-148-258-148"/>
			</defs>
			<clipPath id="SVGID_16_">
				<use xlink:href="#SVGID_15_"  style="overflow:visible;"/>
			</clipPath>
			<g id="g575" transform="matrix(2.0820361,0,0,-2.0820361,-388.92632,1535.2883)" class="st14">
				
					<image style="overflow:visible;enable-background:new    ;" width="7" height="7" id="image585" xlink:href="D8CB999E.png"  transform="matrix(0.4755 0 0 -0.4905 234.3062 328.1436)">
				</image>
			</g>
		</g>
	</g>
	<path id="path2956" sodipodi:nodetypes="cccc" class="st15" d="M37,788.8l-10.3,4.9l6.3,8.5C34.5,797.6,35,793.4,37,788.8L37,788.8
		z"/>
	<path id="path3748" sodipodi:nodetypes="cccc" class="st16" d="M26.2,804.4c-0.2,4.8-0.4,9.8-0.4,14.7l8.3-7.2L26.2,804.4
		L26.2,804.4z"/>
	<path id="path3758" sodipodi:nodetypes="cccc" class="st17" d="M40.8,769.2c-2.7,4-5.7,9.4-8.1,13.7l10.7-2.6L40.8,769.2z"/>
	<path id="path3760" sodipodi:nodetypes="cccc" class="st18" d="M58.1,761.2l-11.3-1.4l0.8,10.6C51.2,767.2,53.9,764,58.1,761.2z"/>
	<path id="path3762" sodipodi:nodetypes="cccc" class="st19" d="M71.6,745.7c-4.3,2.1-9.6,5.3-13.8,7.9l10.6,3.2L71.6,745.7z"/>
	<path id="path3766" sodipodi:nodetypes="cccc" class="st20" d="M90.7,746.8l-9.6-6.1l-3.9,9.8C81.8,749.3,85.6,747.5,90.7,746.8
		L90.7,746.8z"/>
	<path id="path3768" sodipodi:nodetypes="cccc" class="st21" d="M160.9,788.8l10.3,4.9l-6.3,8.5C163.4,797.6,163,793.4,160.9,788.8
		L160.9,788.8z"/>
	<path id="path3770" sodipodi:nodetypes="cccc" class="st22" d="M157.2,769.2c2.7,4,5.7,9.4,8.1,13.7l-10.7-2.6L157.2,769.2z"/>
	<path id="path3772" sodipodi:nodetypes="cccc" class="st23" d="M139.9,761.2l11.3-1.4l-0.8,10.6C146.7,767.2,144.1,764,139.9,761.2
		z"/>
	<path id="path3774" sodipodi:nodetypes="cccc" class="st24" d="M127.2,745.9c4.3,2.1,9.6,5.3,13.8,7.9l-10.6,3.2L127.2,745.9z"/>
	<path id="path3776" sodipodi:nodetypes="cccc" class="st25" d="M109.4,747.2l9.7-6l3.7,9.9C118.1,749.8,114.4,747.9,109.4,747.2z"
		/>
	<path id="path3778" sodipodi:nodetypes="cccc" class="st26" d="M172,804.8c0.2,4.8,0.4,9.8,0.4,14.7l-8.3-7.2L172,804.8L172,804.8z
		"/>
	<path id="path3780" sodipodi:nodetypes="cccc" class="st27" d="M107.8,739.3c-4.8-0.3-11-0.2-15.9-0.1l7.6,8L107.8,739.3z"/>
	<g id="g3809" transform="matrix(1.6656289,0,0,1.6656289,-311.32937,638.97217)">
		<path id="path645" class="st0" d="M218.6,157.1c-2.6,0-4.2,0.1-6.5-0.7c-1.9-0.7-2.3-1.8-2.3-3.2v-8.7c0-1.2,0.2-2.1,1.6-2.9
			c1.2-0.7,3.2-0.9,5.3-0.9h11.6l0,3.5h-10.4c-0.5,0-0.8,0.1-1.2,0.3c-0.3,0.2-0.4,0.4-0.4,0.7v7.3c0,0.3,0.2,0.6,0.6,0.8
			c0.5,0.3,1.2,0.2,1.9,0.2h9.6v3.6L218.6,157.1L218.6,157.1z"/>
		<path id="path649" sodipodi:nodetypes="ccccccccccsccc" class="st0" d="M246.5,144.7l-2.5,5.2h5.1L246.5,144.7z M252.5,157.1
			l-1.7-3.5h-8.5l-1.9,3.5h-6.5l7.8-14.5c0.7-1.3,2.4-2.2,4.8-2.2c2.3,0,4,0.8,4.7,2l8,14.7H252.5L252.5,157.1z"/>
		<path id="path653" sodipodi:nodetypes="cscccccccccccccc" class="st0" d="M273.3,144.1c-0.5,0-0.8,0.1-1.2,0.4
			c-0.3,0.2-0.4,0.4-0.4,0.7v1.7h12v3.6h-12.1v6.6h-6.3v-12.6c0-1.2,0.2-2.2,1.6-3c1.2-0.7,3.1-0.8,5.2-0.8l11.6,0v3.5H273.3
			L273.3,144.1L273.3,144.1z"/>
		<path id="path779" sodipodi:nodetypes="csccccccccscccccccsssccsssc" class="st0" d="M289.9,142.1c0.3,0,0.6,0,0.6-0.4
			c0-0.3-0.3-0.4-0.6-0.4h-0.5v0.8L289.9,142.1L289.9,142.1z M289.4,143.6H289v-2.7h1c0.6,0,1,0.2,1,0.8c0,0.5-0.3,0.7-0.7,0.7
			l0.7,1.2h-0.5l-0.7-1.1h-0.4L289.4,143.6L289.4,143.6z M289.9,140.2c-1,0-1.8,0.8-1.8,2c0,1.1,0.7,2,1.8,2c1,0,1.8-0.8,1.8-2
			C291.7,141,290.9,140.2,289.9,140.2 M289.9,144.6c-1.4,0-2.4-1-2.4-2.4c0-1.4,1.1-2.4,2.4-2.4c1.3,0,2.4,1,2.4,2.4
			C292.2,143.6,291.1,144.6,289.9,144.6"/>
	</g>
</g>
</svg>
